<svg id="Komponente_1_1" data-name="Komponente 1 – 1" xmlns="http://www.w3.org/2000/svg" width="91" height="133" viewBox="0 0 91 133">
  <path id="Pfad_9" data-name="Pfad 9" d="M225.593,347.119v133h91v-133Zm19.328,64.5a5.509,5.509,0,0,1,5-5h22.344a4.5,4.5,0,0,1,0,9H253.921v3a4.5,4.5,0,0,1-9,0Zm10.5,22.721a4.5,4.5,0,0,1-4.5,4.5h-1a4.5,4.5,0,0,1,0-9h1A4.5,4.5,0,0,1,255.421,434.34Zm1,27.722h-7a4.5,4.5,0,0,1-4.5-4.5,2.389,2.389,0,0,0,0-.943v-7a4.5,4.5,0,0,1,9,0v3.443h2.5a4.5,4.5,0,0,1,0,9Zm3.39-27.722a4.5,4.5,0,0,1,4.5-4.5h10.927a4.5,4.5,0,0,1,0,9H264.311A4.5,4.5,0,0,1,259.811,434.34Zm32.954,27.722H270.421a4.5,4.5,0,0,1,0-9h22.344a4.5,4.5,0,0,1,0,9Zm.336-46.443h-7a4.5,4.5,0,1,1,0-9h7a4.5,4.5,0,0,1,0,9Z" transform="translate(-225.593 -347.119)" fill="#2046f6"/>
</svg>
